# xmcd
#
# Track frame offsets:
#	150
#	13863
#	38264
#	49784
#	65779
#	78655
#	106103
#	122190
#	145416
#
# Disc length: 2155 seconds
#
# Revision: 0
# Processed by: cddbd v1.5.1PL0 Copyright (c) Steve Scherf et al.
# Submitted via: dBpowerAMP V4.0
#
DISCID=78086909
DTITLE=Pedro Andrea - Vapor Blues
DYEAR=1900
DGENRE=Blues
TTITLE0=Big San
TTITLE1=Dr. Feelgood
TTITLE2=Gran Quero
TTITLE3=Dust my Broom
TTITLE4=Shuffle Rag
TTITLE5=The Thrill is Gone
TTITLE6=Vapor Blues
TTITLE7=All Aboard
TTITLE8=Silence
EXTD=
EXTT0=
EXTT1=
EXTT2=
EXTT3=
EXTT4=
EXTT5=
EXTT6=
EXTT7=
EXTT8=
PLAYORDER=
